<mxfile host="65bd71144e">
    <diagram id="RmMxgngE9b9G2m16GDjZ" name="Page-1">
        <mxGraphModel dx="3207" dy="1327" grid="1" gridSize="10" guides="1" tooltips="1" connect="1" arrows="1" fold="1" page="1" pageScale="1" pageWidth="827" pageHeight="1169" math="0" shadow="0">
            <root>
                <mxCell id="0"/>
                <mxCell id="1" parent="0"/>
                <mxCell id="3" value="User" style="swimlane;fontStyle=0;childLayout=stackLayout;horizontal=1;startSize=30;horizontalStack=0;resizeParent=1;resizeParentMax=0;resizeLast=0;collapsible=1;marginBottom=0;" vertex="1" parent="1">
                    <mxGeometry x="160" y="40" width="160" height="210" as="geometry"/>
                </mxCell>
                <mxCell id="36" value="id" style="text;strokeColor=none;fillColor=none;align=center;verticalAlign=middle;spacingLeft=4;spacingRight=4;overflow=hidden;points=[[0,0.5],[1,0.5]];portConstraint=eastwest;rotatable=0;" vertex="1" parent="3">
                    <mxGeometry y="30" width="160" height="30" as="geometry"/>
                </mxCell>
                <mxCell id="4" value="name" style="text;strokeColor=none;fillColor=none;align=center;verticalAlign=middle;spacingLeft=4;spacingRight=4;overflow=hidden;points=[[0,0.5],[1,0.5]];portConstraint=eastwest;rotatable=0;" vertex="1" parent="3">
                    <mxGeometry y="60" width="160" height="30" as="geometry"/>
                </mxCell>
                <mxCell id="6" value="email" style="text;strokeColor=none;fillColor=none;align=center;verticalAlign=middle;spacingLeft=4;spacingRight=4;overflow=hidden;points=[[0,0.5],[1,0.5]];portConstraint=eastwest;rotatable=0;" vertex="1" parent="3">
                    <mxGeometry y="90" width="160" height="30" as="geometry"/>
                </mxCell>
                <mxCell id="20" value="introduction" style="text;strokeColor=none;fillColor=none;align=center;verticalAlign=middle;spacingLeft=4;spacingRight=4;overflow=hidden;points=[[0,0.5],[1,0.5]];portConstraint=eastwest;rotatable=0;" vertex="1" parent="3">
                    <mxGeometry y="120" width="160" height="30" as="geometry"/>
                </mxCell>
                <mxCell id="19" value="assword" style="text;strokeColor=none;fillColor=none;align=center;verticalAlign=middle;spacingLeft=4;spacingRight=4;overflow=hidden;points=[[0,0.5],[1,0.5]];portConstraint=eastwest;rotatable=0;" vertex="1" parent="3">
                    <mxGeometry y="150" width="160" height="30" as="geometry"/>
                </mxCell>
                <mxCell id="18" value="avatar" style="text;strokeColor=none;fillColor=none;align=center;verticalAlign=middle;spacingLeft=4;spacingRight=4;overflow=hidden;points=[[0,0.5],[1,0.5]];portConstraint=eastwest;rotatable=0;" vertex="1" parent="3">
                    <mxGeometry y="180" width="160" height="30" as="geometry"/>
                </mxCell>
                <mxCell id="25" value="Recipe" style="swimlane;fontStyle=0;childLayout=stackLayout;horizontal=1;startSize=30;horizontalStack=0;resizeParent=1;resizeParentMax=0;resizeLast=0;collapsible=1;marginBottom=0;" vertex="1" parent="1">
                    <mxGeometry x="520" y="120" width="160" height="360" as="geometry"/>
                </mxCell>
                <mxCell id="38" value="id" style="text;strokeColor=none;fillColor=none;align=center;verticalAlign=middle;spacingLeft=4;spacingRight=4;overflow=hidden;points=[[0,0.5],[1,0.5]];portConstraint=eastwest;rotatable=0;" vertex="1" parent="25">
                    <mxGeometry y="30" width="160" height="30" as="geometry"/>
                </mxCell>
                <mxCell id="37" value="user_id" style="text;strokeColor=none;fillColor=none;align=center;verticalAlign=middle;spacingLeft=4;spacingRight=4;overflow=hidden;points=[[0,0.5],[1,0.5]];portConstraint=eastwest;rotatable=0;" vertex="1" parent="25">
                    <mxGeometry y="60" width="160" height="30" as="geometry"/>
                </mxCell>
                <mxCell id="29" value="recipe_name" style="text;strokeColor=none;fillColor=none;align=center;verticalAlign=middle;spacingLeft=4;spacingRight=4;overflow=hidden;points=[[0,0.5],[1,0.5]];portConstraint=eastwest;rotatable=0;" vertex="1" parent="25">
                    <mxGeometry y="90" width="160" height="30" as="geometry"/>
                </mxCell>
                <mxCell id="30" value="main_food" style="text;strokeColor=none;fillColor=none;align=center;verticalAlign=middle;spacingLeft=4;spacingRight=4;overflow=hidden;points=[[0,0.5],[1,0.5]];portConstraint=eastwest;rotatable=0;" vertex="1" parent="25">
                    <mxGeometry y="120" width="160" height="30" as="geometry"/>
                </mxCell>
                <mxCell id="31" value="material" style="text;strokeColor=none;fillColor=none;align=center;verticalAlign=middle;spacingLeft=4;spacingRight=4;overflow=hidden;points=[[0,0.5],[1,0.5]];portConstraint=eastwest;rotatable=0;" vertex="1" parent="25">
                    <mxGeometry y="150" width="160" height="30" as="geometry"/>
                </mxCell>
                <mxCell id="32" value="recipe_how" style="text;strokeColor=none;fillColor=none;align=center;verticalAlign=middle;spacingLeft=4;spacingRight=4;overflow=hidden;points=[[0,0.5],[1,0.5]];portConstraint=eastwest;rotatable=0;" vertex="1" parent="25">
                    <mxGeometry y="180" width="160" height="30" as="geometry"/>
                </mxCell>
                <mxCell id="33" value="price" style="text;strokeColor=none;fillColor=none;align=center;verticalAlign=middle;spacingLeft=4;spacingRight=4;overflow=hidden;points=[[0,0.5],[1,0.5]];portConstraint=eastwest;rotatable=0;" vertex="1" parent="25">
                    <mxGeometry y="210" width="160" height="30" as="geometry"/>
                </mxCell>
                <mxCell id="34" value="time" style="text;strokeColor=none;fillColor=none;align=center;verticalAlign=middle;spacingLeft=4;spacingRight=4;overflow=hidden;points=[[0,0.5],[1,0.5]];portConstraint=eastwest;rotatable=0;" vertex="1" parent="25">
                    <mxGeometry y="240" width="160" height="30" as="geometry"/>
                </mxCell>
                <mxCell id="27" value="people" style="text;strokeColor=none;fillColor=none;align=center;verticalAlign=middle;spacingLeft=4;spacingRight=4;overflow=hidden;points=[[0,0.5],[1,0.5]];portConstraint=eastwest;rotatable=0;" vertex="1" parent="25">
                    <mxGeometry y="270" width="160" height="30" as="geometry"/>
                </mxCell>
                <mxCell id="35" value="food" style="text;strokeColor=none;fillColor=none;align=center;verticalAlign=middle;spacingLeft=4;spacingRight=4;overflow=hidden;points=[[0,0.5],[1,0.5]];portConstraint=eastwest;rotatable=0;" vertex="1" parent="25">
                    <mxGeometry y="300" width="160" height="30" as="geometry"/>
                </mxCell>
                <mxCell id="26" value="food" style="text;strokeColor=none;fillColor=none;align=center;verticalAlign=middle;spacingLeft=4;spacingRight=4;overflow=hidden;points=[[0,0.5],[1,0.5]];portConstraint=eastwest;rotatable=0;" vertex="1" parent="25">
                    <mxGeometry y="330" width="160" height="30" as="geometry"/>
                </mxCell>
                <mxCell id="39" value="Favorite" style="swimlane;fontStyle=0;childLayout=stackLayout;horizontal=1;startSize=30;horizontalStack=0;resizeParent=1;resizeParentMax=0;resizeLast=0;collapsible=1;marginBottom=0;" vertex="1" parent="1">
                    <mxGeometry x="160" y="360" width="160" height="120" as="geometry"/>
                </mxCell>
                <mxCell id="43" value="id" style="text;strokeColor=none;fillColor=none;align=center;verticalAlign=middle;spacingLeft=4;spacingRight=4;overflow=hidden;points=[[0,0.5],[1,0.5]];portConstraint=eastwest;rotatable=0;" vertex="1" parent="39">
                    <mxGeometry y="30" width="160" height="30" as="geometry"/>
                </mxCell>
                <mxCell id="40" value="user_id" style="text;strokeColor=none;fillColor=none;align=center;verticalAlign=middle;spacingLeft=4;spacingRight=4;overflow=hidden;points=[[0,0.5],[1,0.5]];portConstraint=eastwest;rotatable=0;" vertex="1" parent="39">
                    <mxGeometry y="60" width="160" height="30" as="geometry"/>
                </mxCell>
                <mxCell id="41" value="recipe_id" style="text;strokeColor=none;fillColor=none;align=center;verticalAlign=middle;spacingLeft=4;spacingRight=4;overflow=hidden;points=[[0,0.5],[1,0.5]];portConstraint=eastwest;rotatable=0;" vertex="1" parent="39">
                    <mxGeometry y="90" width="160" height="30" as="geometry"/>
                </mxCell>
                <mxCell id="44" value="" style="endArrow=ERmany;html=1;labelBorderColor=none;labelBackgroundColor=default;fontColor=default;fontStyle=0;align=center;startArrow=none;startFill=0;endFill=0;fillColor=#dae8fc;strokeColor=#6c8ebf;strokeWidth=2;gradientColor=#7ea6e0;entryX=-0.017;entryY=-0.06;entryDx=0;entryDy=0;entryPerimeter=0;" edge="1" parent="1" target="37">
                    <mxGeometry width="50" height="50" relative="1" as="geometry">
                        <mxPoint x="320" y="180" as="sourcePoint"/>
                        <mxPoint x="480" y="180" as="targetPoint"/>
                    </mxGeometry>
                </mxCell>
                <mxCell id="73" value="" style="endArrow=none;startArrow=ERmany;html=1;labelBackgroundColor=default;labelBorderColor=none;fontColor=default;strokeWidth=2;startFill=0;endFill=0;fillColor=#dae8fc;strokeColor=#6c8ebf;entryX=0.503;entryY=1.067;entryDx=0;entryDy=0;entryPerimeter=0;exitX=0.5;exitY=0;exitDx=0;exitDy=0;gradientColor=#7ea6e0;" edge="1" parent="1" source="39" target="18">
                    <mxGeometry width="50" height="50" relative="1" as="geometry">
                        <mxPoint x="179.5" y="330" as="sourcePoint"/>
                        <mxPoint x="180" y="260" as="targetPoint"/>
                    </mxGeometry>
                </mxCell>
                <mxCell id="75" value="" style="endArrow=none;html=1;labelBackgroundColor=default;labelBorderColor=none;fontColor=default;strokeWidth=2;endFill=0;startArrow=ERmany;startFill=0;fillColor=#dae8fc;strokeColor=#6c8ebf;gradientColor=#7ea6e0;entryX=0;entryY=0.5;entryDx=0;entryDy=0;" edge="1" parent="1" target="27">
                    <mxGeometry width="50" height="50" relative="1" as="geometry">
                        <mxPoint x="320" y="405" as="sourcePoint"/>
                        <mxPoint x="421" y="405" as="targetPoint"/>
                        <Array as="points"/>
                    </mxGeometry>
                </mxCell>
            </root>
        </mxGraphModel>
    </diagram>
    <diagram id="ByM0qfsplLJgUxQ43t5I" name="Page-2">
        <mxGraphModel dx="3576" dy="2306" grid="1" gridSize="10" guides="1" tooltips="1" connect="1" arrows="1" fold="1" page="1" pageScale="1" pageWidth="827" pageHeight="1169" math="0" shadow="0">
            <root>
                <mxCell id="9raaTgGEs3K9zBtJuqAI-0"/>
                <mxCell id="9raaTgGEs3K9zBtJuqAI-1" parent="9raaTgGEs3K9zBtJuqAI-0"/>
                <mxCell id="9raaTgGEs3K9zBtJuqAI-10" value="VPC" style="sketch=0;outlineConnect=0;gradientColor=none;html=1;whiteSpace=wrap;fontSize=12;fontStyle=0;shape=mxgraph.aws4.group;grIcon=mxgraph.aws4.group_vpc;strokeColor=#FFFFFF;fillColor=none;verticalAlign=top;align=left;spacingLeft=30;fontColor=#879196;dashed=0;strokeWidth=2;" vertex="1" parent="9raaTgGEs3K9zBtJuqAI-1">
                    <mxGeometry x="-320" y="-690" width="640" height="530" as="geometry"/>
                </mxCell>
                <mxCell id="9raaTgGEs3K9zBtJuqAI-11" value="ss" style="sketch=0;outlineConnect=0;gradientColor=none;html=1;whiteSpace=wrap;fontSize=12;fontStyle=0;shape=mxgraph.aws4.group;grIcon=mxgraph.aws4.group_aws_cloud;strokeColor=#FFFFFF;fillColor=none;verticalAlign=top;align=left;spacingLeft=30;fontColor=#AAB7B8;dashed=0;strokeWidth=2;" vertex="1" parent="9raaTgGEs3K9zBtJuqAI-1">
                    <mxGeometry x="-440" y="-880" width="880" height="760" as="geometry"/>
                </mxCell>
                <mxCell id="9raaTgGEs3K9zBtJuqAI-14" value="Subnet" style="sketch=0;outlineConnect=0;gradientColor=#b3b3b3;html=1;whiteSpace=wrap;fontSize=12;fontStyle=0;shape=mxgraph.aws4.group;grIcon=mxgraph.aws4.group_subnet;strokeColor=#666666;fillColor=#f5f5f5;verticalAlign=top;align=left;spacingLeft=30;dashed=0;" vertex="1" parent="9raaTgGEs3K9zBtJuqAI-1">
                    <mxGeometry x="40" y="-440" width="200" height="200" as="geometry"/>
                </mxCell>
                <mxCell id="9raaTgGEs3K9zBtJuqAI-15" value="Subnet" style="sketch=0;outlineConnect=0;gradientColor=#b3b3b3;html=1;whiteSpace=wrap;fontSize=12;fontStyle=0;shape=mxgraph.aws4.group;grIcon=mxgraph.aws4.group_subnet;strokeColor=#666666;fillColor=#f5f5f5;verticalAlign=top;align=left;spacingLeft=30;dashed=0;" vertex="1" parent="9raaTgGEs3K9zBtJuqAI-1">
                    <mxGeometry x="-250" y="-440" width="200" height="200" as="geometry"/>
                </mxCell>
                <mxCell id="9raaTgGEs3K9zBtJuqAI-17" value="" style="outlineConnect=0;dashed=0;verticalLabelPosition=bottom;verticalAlign=top;align=center;html=1;shape=mxgraph.aws3.instances;fillColor=#F58534;gradientColor=none;fontColor=default;strokeColor=#FFFFFF;strokeWidth=2;" vertex="1" parent="9raaTgGEs3K9zBtJuqAI-1">
                    <mxGeometry x="95" y="-385" width="90" height="90" as="geometry"/>
                </mxCell>
                <mxCell id="9raaTgGEs3K9zBtJuqAI-18" value="" style="outlineConnect=0;dashed=0;verticalLabelPosition=bottom;verticalAlign=top;align=center;html=1;shape=mxgraph.aws3.instances;fillColor=#F58534;gradientColor=none;fontColor=default;strokeColor=#FFFFFF;strokeWidth=2;" vertex="1" parent="9raaTgGEs3K9zBtJuqAI-1">
                    <mxGeometry x="-195" y="-385" width="90" height="90" as="geometry"/>
                </mxCell>
                <mxCell id="9raaTgGEs3K9zBtJuqAI-20" value="" style="outlineConnect=0;dashed=0;verticalLabelPosition=bottom;verticalAlign=top;align=center;html=1;shape=mxgraph.aws3.internet_gateway;fillColor=#F58536;gradientColor=none;fontColor=default;strokeColor=#FFFFFF;strokeWidth=2;" vertex="1" parent="9raaTgGEs3K9zBtJuqAI-1">
                    <mxGeometry x="-45" y="-920" width="90" height="90" as="geometry"/>
                </mxCell>
                <mxCell id="9raaTgGEs3K9zBtJuqAI-22" value="" style="outlineConnect=0;dashed=0;verticalLabelPosition=bottom;verticalAlign=top;align=center;html=1;shape=mxgraph.aws3.router;fillColor=#F58536;gradientColor=none;fontColor=default;strokeColor=#FFFFFF;strokeWidth=2;" vertex="1" parent="9raaTgGEs3K9zBtJuqAI-1">
                    <mxGeometry x="-40" y="-644" width="80" height="80" as="geometry"/>
                </mxCell>
                <mxCell id="9raaTgGEs3K9zBtJuqAI-25" value="ルーター" style="text;html=1;strokeColor=none;fillColor=none;align=center;verticalAlign=middle;whiteSpace=wrap;rounded=0;fontColor=default;fontSize=30;fontStyle=1" vertex="1" parent="9raaTgGEs3K9zBtJuqAI-1">
                    <mxGeometry x="-71.25" y="-564" width="142.5" height="80" as="geometry"/>
                </mxCell>
                <mxCell id="9raaTgGEs3K9zBtJuqAI-27" value="" style="outlineConnect=0;dashed=0;verticalLabelPosition=bottom;verticalAlign=top;align=center;html=1;shape=mxgraph.aws3.virtual_private_cloud;fillColor=#F58534;gradientColor=none;fontSize=24;fontColor=default;strokeColor=#FFFFFF;strokeWidth=2;" vertex="1" parent="9raaTgGEs3K9zBtJuqAI-1">
                    <mxGeometry x="-290" y="-644" width="90" height="60" as="geometry"/>
                </mxCell>
                <mxCell id="9raaTgGEs3K9zBtJuqAI-28" value="" style="outlineConnect=0;dashed=0;verticalLabelPosition=bottom;verticalAlign=top;align=center;html=1;shape=mxgraph.aws3.cloud_2;fillColor=#F58534;gradientColor=none;fontSize=24;fontColor=default;strokeColor=#FFFFFF;strokeWidth=2;" vertex="1" parent="9raaTgGEs3K9zBtJuqAI-1">
                    <mxGeometry x="-400" y="-840" width="75" height="75" as="geometry"/>
                </mxCell>
                <mxCell id="9raaTgGEs3K9zBtJuqAI-29" style="edgeStyle=none;html=1;exitX=0.5;exitY=0;exitDx=0;exitDy=0;exitPerimeter=0;entryX=0.76;entryY=0.22;entryDx=0;entryDy=0;entryPerimeter=0;labelBackgroundColor=default;labelBorderColor=none;fontSize=24;fontColor=default;startArrow=ERmany;startFill=0;endArrow=none;endFill=0;strokeWidth=2;" edge="1" parent="9raaTgGEs3K9zBtJuqAI-1" source="9raaTgGEs3K9zBtJuqAI-17" target="9raaTgGEs3K9zBtJuqAI-17">
                    <mxGeometry relative="1" as="geometry"/>
                </mxCell>
                <mxCell id="9raaTgGEs3K9zBtJuqAI-30" value="" style="rounded=1;arcSize=10;dashed=1;strokeColor=#FF0000;fillColor=none;gradientColor=none;dashPattern=8 4;strokeWidth=2;fontSize=24;fontColor=default;" vertex="1" parent="9raaTgGEs3K9zBtJuqAI-1">
                    <mxGeometry x="-225" y="-415" width="150" height="150" as="geometry"/>
                </mxCell>
                <mxCell id="9raaTgGEs3K9zBtJuqAI-31" value="" style="rounded=1;arcSize=10;dashed=1;strokeColor=#ff0000;fillColor=none;gradientColor=none;dashPattern=8 4;strokeWidth=2;fontSize=24;fontColor=default;" vertex="1" parent="9raaTgGEs3K9zBtJuqAI-1">
                    <mxGeometry x="65" y="-415" width="150" height="150" as="geometry"/>
                </mxCell>
                <mxCell id="9raaTgGEs3K9zBtJuqAI-32" value="&lt;b&gt;&lt;font style=&quot;font-size: 30px&quot;&gt;インターネットゲートウェイ&lt;/font&gt;&lt;/b&gt;" style="text;html=1;strokeColor=none;fillColor=none;align=center;verticalAlign=middle;whiteSpace=wrap;rounded=0;fontSize=24;fontColor=default;" vertex="1" parent="9raaTgGEs3K9zBtJuqAI-1">
                    <mxGeometry x="-200" y="-810" width="395" height="70" as="geometry"/>
                </mxCell>
                <mxCell id="9raaTgGEs3K9zBtJuqAI-33" value="" style="sketch=0;aspect=fixed;html=1;points=[];align=center;image;fontSize=12;image=img/lib/mscae/Docker.svg;fontColor=default;strokeColor=#FF0000;strokeWidth=2;imageBackground=#FFFFFF;" vertex="1" parent="9raaTgGEs3K9zBtJuqAI-1">
                    <mxGeometry x="-760" y="-720" width="182.93" height="150" as="geometry"/>
                </mxCell>
                <mxCell id="9raaTgGEs3K9zBtJuqAI-36" value="" style="dashed=0;outlineConnect=0;html=1;align=center;labelPosition=center;verticalLabelPosition=bottom;verticalAlign=top;shape=mxgraph.weblogos.github;fontSize=25;fontColor=default;strokeColor=#FF0000;strokeWidth=2;" vertex="1" parent="9raaTgGEs3K9zBtJuqAI-1">
                    <mxGeometry x="-760" y="-400" width="150" height="150" as="geometry"/>
                </mxCell>
                <mxCell id="9raaTgGEs3K9zBtJuqAI-37" value="" style="endArrow=block;html=1;labelBackgroundColor=default;labelBorderColor=none;fontSize=25;fontColor=default;strokeWidth=4;endFill=1;" edge="1" parent="9raaTgGEs3K9zBtJuqAI-1">
                    <mxGeometry width="50" height="50" relative="1" as="geometry">
                        <mxPoint x="-430" y="-330" as="sourcePoint"/>
                        <mxPoint x="-250" y="-330" as="targetPoint"/>
                        <Array as="points">
                            <mxPoint x="-620" y="-330"/>
                        </Array>
                    </mxGeometry>
                </mxCell>
                <mxCell id="9raaTgGEs3K9zBtJuqAI-39" value="" style="endArrow=none;html=1;labelBackgroundColor=default;labelBorderColor=none;fontSize=25;fontColor=default;strokeWidth=4;endFill=0;startArrow=block;startFill=1;" edge="1" parent="9raaTgGEs3K9zBtJuqAI-1">
                    <mxGeometry width="50" height="50" relative="1" as="geometry">
                        <mxPoint x="-680" y="-390" as="sourcePoint"/>
                        <mxPoint x="-680" y="-570" as="targetPoint"/>
                    </mxGeometry>
                </mxCell>
                <mxCell id="9raaTgGEs3K9zBtJuqAI-45" value="サブネット" style="text;html=1;align=center;verticalAlign=middle;whiteSpace=wrap;rounded=0;fontSize=25;fontStyle=1" vertex="1" parent="9raaTgGEs3K9zBtJuqAI-1">
                    <mxGeometry x="-222.5" y="-490" width="145" height="30" as="geometry"/>
                </mxCell>
                <mxCell id="9raaTgGEs3K9zBtJuqAI-46" value="サブネット" style="text;html=1;strokeColor=none;fillColor=none;align=center;verticalAlign=middle;whiteSpace=wrap;rounded=0;fontSize=25;fontColor=default;fontStyle=1" vertex="1" parent="9raaTgGEs3K9zBtJuqAI-1">
                    <mxGeometry x="60" y="-490" width="160" height="30" as="geometry"/>
                </mxCell>
                <mxCell id="9raaTgGEs3K9zBtJuqAI-48" value="" style="rounded=1;arcSize=10;dashed=1;strokeColor=#ff0000;fillColor=none;gradientColor=none;dashPattern=8 4;strokeWidth=2;fontSize=25;fontColor=default;" vertex="1" parent="9raaTgGEs3K9zBtJuqAI-1">
                    <mxGeometry x="480" y="-210" width="70" height="70" as="geometry"/>
                </mxCell>
                <mxCell id="9raaTgGEs3K9zBtJuqAI-49" value="セキュリティグループ" style="text;html=1;strokeColor=none;fillColor=none;align=center;verticalAlign=middle;whiteSpace=wrap;rounded=0;fontSize=33;fontColor=default;fontStyle=1" vertex="1" parent="9raaTgGEs3K9zBtJuqAI-1">
                    <mxGeometry x="570" y="-210" width="340" height="75" as="geometry"/>
                </mxCell>
                <mxCell id="9raaTgGEs3K9zBtJuqAI-50" value="" style="outlineConnect=0;dashed=0;verticalLabelPosition=bottom;verticalAlign=top;align=center;html=1;shape=mxgraph.aws3.instances;fillColor=#F58534;gradientColor=none;fontSize=50;fontColor=default;strokeColor=#FF0000;strokeWidth=2;" vertex="1" parent="9raaTgGEs3K9zBtJuqAI-1">
                    <mxGeometry x="480" y="-310" width="70" height="70" as="geometry"/>
                </mxCell>
                <mxCell id="9raaTgGEs3K9zBtJuqAI-51" value="インスタンス" style="text;html=1;strokeColor=none;fillColor=none;align=center;verticalAlign=middle;whiteSpace=wrap;rounded=0;fontSize=30;fontColor=default;fontStyle=1" vertex="1" parent="9raaTgGEs3K9zBtJuqAI-1">
                    <mxGeometry x="550" y="-310" width="290" height="80" as="geometry"/>
                </mxCell>
            </root>
        </mxGraphModel>
    </diagram>
</mxfile>